# xmcd
#
# Track frame offsets:
#	150
#	20725
#	53100
#	70250
#	92825
#	112950
#	138300
#	162212
#	189925
#	209875
#	230925
#	254350
#	270337
#	290075
#
# Disc length: 4164 seconds
#
# Revision: 1
# Processed by: cddbd v1.5.1PL0 Copyright (c) Steve Scherf et al.
# Submitted via: CDex 1.50Beta5
#
DISCID=d510420e
DTITLE=さまざまなアーティスト - @jazz cafe vacance
DYEAR=1900
DGENRE=
TTITLE0=Toninho Horta/Mounain Flight
TTITLE1=Neil Larsen/Jungle Fever
TTITLE2=Mark-Almond/Other People's Room
TTITLE3=Wes Montgomery/Here's That Rainy Day
TTITLE4=The Singer's Unlimited/Skylark
TTITLE5=Oscar Peterson/Girl Talk
TTITLE6=Toots Thielemans/What Kind Of Fool Am I
TTITLE7=George Benson/Billie's Bounce
TTITLE8=Jimmy Smith/In A Mellow Tone
TTITLE9=Chet Baker/If You Could See Me Now
TTITLE10=Quincy Jones/Killer Joe
TTITLE11=Chuck Mangione/Feel So Good
TTITLE12=Antonio Carlos Jobim/No More Blues
TTITLE13=Joyce/Waiting For You
EXTD=
EXTT0=
EXTT1=
EXTT2=
EXTT3=
EXTT4=
EXTT5=
EXTT6=
EXTT7=
EXTT8=
EXTT9=
EXTT10=
EXTT11=
EXTT12=
EXTT13=
PLAYORDER=
